<svg xmlns="http://www.w3.org/2000/svg" xmlns:xlink="http://www.w3.org/1999/xlink" width="500" zoomAndPan="magnify" viewBox="0 0 375 374.999991" height="500" preserveAspectRatio="xMidYMid meet" version="1.0"><defs><g/><clipPath id="2807c1c4e3"><path d="M 9 1 L 336 1 L 336 308 L 9 308 Z M 9 1 " clip-rule="nonzero"/></clipPath><clipPath id="8454dcbf78"><path d="M 0 17.78125 L 320.140625 -5.691406 L 342.902344 304.722656 L 22.761719 328.199219 Z M 0 17.78125 " clip-rule="nonzero"/></clipPath><clipPath id="f3b1ee54e5"><path d="M 0 17.78125 L 320.140625 -5.691406 L 342.902344 304.722656 L 22.761719 328.199219 Z M 0 17.78125 " clip-rule="nonzero"/></clipPath><clipPath id="4d3ff30cd0"><path d="M 0 17.796875 L 320.285156 -5.6875 L 343.027344 304.460938 L 22.742188 327.949219 Z M 0 17.796875 " clip-rule="nonzero"/></clipPath><clipPath id="3580eafc93"><path d="M 0 17.796875 L 320.148438 -5.679688 L 342.886719 304.433594 L 22.742188 327.910156 Z M 0 17.796875 " clip-rule="nonzero"/></clipPath></defs><g clip-path="url(#2807c1c4e3)"><g clip-path="url(#8454dcbf78)"><g clip-path="url(#f3b1ee54e5)"><g clip-path="url(#4d3ff30cd0)"><g clip-path="url(#3580eafc93)"><path fill="#ffffff" d="M 286.464844 247.449219 C 286.226562 247.761719 272.058594 242.4375 261.042969 237.898438 C 248.6875 232.804688 242.164062 229.207031 238.171875 225.292969 C 233.34375 220.5625 224.007812 203.769531 209.898438 174.449219 C 207.542969 169.554688 203.886719 162.25 201.769531 158.210938 C 199.65625 154.175781 197.703125 150.316406 197.4375 149.636719 C 196.957031 148.421875 197.265625 149.15625 212.859375 147.417969 C 216.816406 146.976562 224.898438 145.476562 228.765625 146.429688 C 229.964844 146.730469 238.953125 152.964844 241.066406 154.664062 C 242.027344 155.433594 244.335938 156.65625 244.910156 157.746094 C 245.785156 159.410156 246.382812 170.902344 246.039062 172.75 C 245.542969 175.429688 241.375 182.601562 241.375 182.601562 C 236.460938 192.988281 235.828125 195.730469 238.386719 195.542969 C 239.507812 195.460938 240.238281 194.597656 241.484375 191.890625 C 242.382812 189.9375 244.433594 185.644531 246.035156 182.347656 C 247.644531 179.046875 249.253906 175.398438 249.613281 174.234375 C 250.445312 171.582031 249.90625 157.859375 247.648438 155.167969 C 246.242188 153.492188 230.050781 142.207031 228.734375 141.929688 C 225.265625 141.191406 218.132812 142.847656 214.628906 143.386719 C 202.375 145.28125 200.003906 144.746094 196.363281 144.042969 C 192.109375 143.21875 190.652344 142.003906 192.039062 140.433594 C 193.472656 138.8125 205.757812 134.09375 213.222656 132.300781 C 228.019531 128.75 233.136719 128.316406 237.746094 130.21875 C 246.664062 133.902344 262.808594 144.910156 266.242188 149.652344 C 267.699219 151.664062 270.433594 164.480469 273.042969 181.566406 C 273.621094 185.367188 275.636719 195.652344 277.519531 204.421875 C 283.433594 231.976562 286.613281 247.257812 286.464844 247.449219 Z M 192.585938 126.175781 C 194.597656 126.027344 196.589844 125.363281 198.363281 124.25 C 201.914062 122.019531 201.6875 122.015625 203.351562 124.316406 C 204.148438 125.417969 205.417969 126.796875 206.171875 127.382812 C 208.046875 128.847656 207.941406 129.324219 205.589844 130 C 204.476562 130.316406 201.257812 131.574219 198.4375 132.796875 C 195.621094 134.015625 192.933594 135.042969 192.472656 135.074219 C 191.9375 135.117188 191.394531 133.953125 190.972656 131.851562 C 190.605469 130.042969 190.128906 128.078125 189.914062 127.484375 C 189.578125 126.558594 189.96875 126.367188 192.585938 126.175781 Z M 223.710938 125.425781 C 222.597656 125.984375 219.695312 126.785156 217.269531 127.203125 L 212.855469 127.96875 L 209.738281 125.089844 C 204.636719 120.378906 204.515625 119.953125 207.507812 117.417969 C 211.894531 113.699219 214.097656 112.699219 221.511719 111.058594 C 225.460938 110.1875 229.671875 109.164062 230.867188 108.785156 C 234.738281 107.558594 235.367188 107.628906 235.003906 109.25 C 233.785156 114.683594 227.671875 123.445312 223.710938 125.425781 Z M 234.152344 120.414062 C 235.636719 118.121094 237.171875 115.285156 237.558594 114.113281 C 237.945312 112.9375 238.585938 112.0625 238.984375 112.164062 C 239.382812 112.261719 241.347656 114.578125 243.347656 117.308594 C 246.605469 121.742188 247.050781 122.710938 247.507812 126.324219 C 247.785156 128.550781 247.921875 130.375 247.808594 130.386719 C 247.695312 130.390625 245.621094 129.410156 243.203125 128.203125 C 238.925781 126.070312 236.777344 125.347656 233.1875 124.832031 L 231.449219 124.585938 Z M 187.914062 120.664062 C 187.839844 119.617188 202.488281 102.730469 205.71875 100.140625 C 207.402344 98.792969 212.238281 96.160156 216.46875 94.292969 C 220.695312 92.425781 226.226562 89.84375 228.75 88.554688 C 236.246094 84.730469 238.25 84.152344 240.527344 85.164062 C 241.722656 85.695312 254.785156 99.816406 256.308594 102.222656 C 257.449219 104.023438 261.238281 118.800781 263.988281 132.179688 C 265.25 138.304688 266.246094 143.367188 266.203125 143.425781 C 266.164062 143.484375 263.546875 141.460938 260.390625 138.933594 C 257.234375 136.40625 254.148438 134.210938 253.523438 134.054688 C 252.605469 133.824219 252.335938 133.023438 252.097656 129.796875 C 251.546875 122.269531 250.453125 119.660156 244.789062 112.367188 C 241.910156 108.660156 238.800781 105.207031 237.878906 104.695312 C 236.015625 103.664062 235.183594 103.769531 221.507812 106.75 C 212.425781 108.734375 211.070312 109.410156 202.457031 116.269531 C 195.828125 121.542969 192.84375 122.894531 189.945312 121.9375 C 188.851562 121.574219 187.941406 121.003906 187.914062 120.664062 Z M 185.875 105.769531 C 185.050781 100.722656 185.054688 100.6875 186.535156 100.585938 C 187.714844 100.5 188.503906 101.257812 190.359375 104.253906 L 192.691406 108.03125 L 190.21875 110.949219 C 187.777344 113.832031 187.742188 113.847656 187.226562 112.359375 C 186.9375 111.53125 186.332031 108.566406 185.875 105.769531 Z M 221.054688 87.582031 C 216.648438 89.191406 206.28125 94.503906 203.917969 96.367188 C 202.429688 97.539062 199.953125 99.859375 198.410156 101.523438 C 196.867188 103.1875 195.511719 104.445312 195.394531 104.3125 C 194.863281 103.707031 192.074219 99.433594 192.054688 99.199219 C 192.046875 99.050781 193.199219 98.234375 194.625 97.378906 C 196.046875 96.527344 198.898438 94.4375 200.964844 92.730469 C 206.171875 88.4375 208.722656 87.214844 217.726562 84.695312 C 222.039062 83.488281 226.230469 82.183594 227.042969 81.785156 C 228.863281 80.898438 232.421875 80.519531 232.890625 81.171875 C 233.214844 81.613281 224.558594 86.304688 221.054688 87.582031 Z M 183.609375 96.980469 C 174.570312 97.644531 175.921875 92.332031 187.304688 82.46875 C 200.863281 70.714844 200.113281 71.15625 218.085938 64.355469 C 233.632812 58.472656 234.949219 58.1875 237.734375 60.066406 C 239.453125 61.226562 251.8125 73.898438 256.371094 79.179688 C 261.5625 85.191406 275.214844 102.898438 276.464844 105.242188 C 278.320312 108.710938 279.261719 114.972656 278.464844 118.503906 L 277.835938 121.304688 L 271.234375 113 C 267.605469 108.433594 263.648438 103.625 262.4375 102.316406 C 261.230469 101.007812 259.640625 98.472656 258.90625 96.679688 C 257.269531 92.675781 254.824219 90.078125 252.367188 89.722656 C 251.34375 89.574219 249.964844 88.75 249.308594 87.890625 C 246.980469 84.851562 242.761719 81.332031 241.09375 81.039062 C 240.167969 80.878906 238.195312 79.855469 236.71875 78.769531 C 232.847656 75.917969 231.03125 75.917969 223.257812 78.773438 C 219.597656 80.121094 215.898438 81.273438 215.042969 81.335938 C 212.933594 81.492188 206.324219 83.769531 204.199219 85.074219 C 203.25 85.65625 200.644531 87.6875 198.410156 89.578125 C 193.253906 93.953125 187.816406 96.671875 183.609375 96.980469 Z M 182.445312 116.121094 C 181.039062 113.539062 175.6875 101.164062 175.628906 100.347656 C 175.613281 100.140625 176.113281 100.144531 176.738281 100.359375 C 177.367188 100.566406 178.53125 100.832031 179.332031 100.945312 C 180.984375 101.179688 181.121094 101.542969 182.644531 109.863281 C 184.257812 118.65625 184.234375 119.398438 182.445312 116.121094 Z M 173.265625 48.941406 L 171.027344 42.171875 L 175.480469 41.464844 C 180.101562 40.730469 192.394531 37.078125 206.832031 32.148438 C 211.429688 30.578125 215.6875 29.246094 216.285156 29.1875 C 216.976562 29.125 217.5625 29.714844 217.878906 30.792969 C 219.203125 35.296875 222.445312 43.648438 225.128906 49.476562 C 226.765625 53.023438 228.070312 55.960938 228.027344 56 C 227.988281 56.039062 221.84375 58.457031 214.371094 61.378906 C 206.898438 64.292969 199.832031 67.257812 198.65625 67.964844 C 197.488281 68.671875 193.167969 72.074219 189.058594 75.523438 C 184.949219 78.976562 181.492188 81.714844 181.375 81.613281 C 181.257812 81.511719 179.886719 75.640625 178.332031 68.566406 C 176.773438 61.492188 174.496094 52.660156 173.265625 48.941406 Z M 224.558594 6.546875 C 224.980469 6.984375 227.0625 11.425781 229.179688 16.414062 C 231.300781 21.410156 234.695312 28.5625 236.726562 32.316406 L 240.421875 39.144531 L 237.417969 54.757812 L 234.925781 54.875 C 232.566406 54.984375 232.355469 54.832031 230.808594 51.925781 C 229.914062 50.238281 227.527344 44.839844 225.511719 39.921875 C 222.351562 32.234375 221.722656 30.050781 221.023438 24.324219 C 219.574219 12.515625 221.414062 3.273438 224.558594 6.546875 Z M 242.257812 51.382812 C 242.875 48.148438 243.371094 45.386719 243.359375 45.234375 C 243.28125 44.160156 244.40625 45.675781 247.320312 50.546875 C 249.171875 53.640625 251.964844 59.082031 253.535156 62.636719 C 255.101562 66.1875 257.269531 70.882812 258.351562 73.0625 C 260.414062 77.207031 260.257812 77.289062 257.070312 73.722656 C 256.003906 72.527344 251.984375 68.339844 248.136719 64.410156 L 241.136719 57.261719 Z M 275.214844 169.34375 C 275.082031 169.5 274.101562 164.628906 273.035156 158.519531 C 270.601562 144.542969 266.550781 124.332031 264.511719 115.980469 C 263.648438 112.460938 263.007812 109.578125 263.082031 109.574219 C 263.152344 109.570312 264.914062 111.65625 266.992188 114.210938 C 269.070312 116.765625 272.101562 120.738281 273.726562 123.042969 C 276.332031 126.734375 276.714844 127.6875 276.960938 131.0625 C 277.625 140.21875 276.355469 168.019531 275.214844 169.34375 Z M 160.863281 23.769531 C 160.210938 23.144531 158.816406 22.351562 157.769531 22.003906 C 155.390625 21.214844 155.3125 20.582031 157.480469 19.605469 C 159.84375 18.539062 162.863281 18.332031 163.832031 19.164062 C 165.082031 20.242188 164.933594 21.769531 163.425781 23.410156 C 162.074219 24.882812 162.035156 24.886719 160.863281 23.769531 Z M 161.609375 34.101562 C 160.222656 33.332031 160.015625 32.949219 160.554688 32.191406 C 161.324219 31.109375 161.980469 31.53125 162.78125 33.617188 C 163.332031 35.042969 163.316406 35.046875 161.609375 34.101562 Z M 157.40625 29.4375 C 154.613281 32.117188 130.335938 52.617188 129.921875 52.648438 C 129.71875 52.664062 130.042969 51.5 130.648438 50.0625 C 131.453125 48.15625 133.15625 46.351562 136.996094 43.335938 C 139.882812 41.070312 145.726562 36.339844 149.976562 32.820312 C 155.613281 28.160156 157.910156 26.601562 158.449219 27.078125 C 158.984375 27.550781 158.699219 28.199219 157.40625 29.4375 Z M 153.015625 72.707031 C 153.496094 68.820312 155.855469 73.375 156.273438 78.996094 C 156.734375 85.164062 155.949219 94.574219 151.507812 136.152344 C 149.488281 155.035156 146.777344 168.40625 144.65625 169.941406 C 144.320312 170.1875 141.882812 170.210938 139.242188 169.996094 C 133.566406 169.535156 131.695312 170.222656 123.386719 175.816406 C 120.433594 177.804688 117.476562 179.320312 116.394531 179.398438 C 115.363281 179.476562 112.140625 178.5625 109.234375 177.375 C 105.511719 175.855469 102.308594 175.070312 98.417969 174.734375 C 90.796875 174.070312 88.15625 172.941406 81.058594 167.3125 C 76.378906 163.597656 72.90625 161.519531 66.507812 158.605469 C 54.898438 153.3125 53.828125 151.484375 56.410156 141.355469 C 58.859375 131.734375 62.683594 124.621094 80.414062 96.691406 C 103.515625 60.292969 117.425781 41.699219 124.195312 38.148438 C 126.902344 36.726562 127.609375 36.71875 128.484375 38.101562 C 128.894531 38.746094 129.261719 39.710938 129.300781 40.242188 C 129.488281 42.796875 126.789062 49.191406 121.625 58.4375 C 118.503906 64.027344 113.820312 72.753906 111.214844 77.835938 C 108.613281 82.917969 104.429688 90.941406 101.925781 95.667969 C 99.417969 100.394531 95.820312 107.800781 93.925781 112.132812 C 92.03125 116.464844 89.445312 122.226562 88.179688 124.941406 C 82.878906 136.300781 82.378906 137.566406 82.664062 138.871094 C 82.972656 140.285156 84.417969 140.808594 85.507812 139.902344 C 85.851562 139.613281 89.53125 131.84375 93.683594 122.632812 C 100.460938 107.585938 104.554688 99.359375 118.859375 72.03125 C 122.902344 64.3125 123.355469 63.71875 128.679688 59.242188 C 131.753906 56.660156 136.734375 52.46875 139.746094 49.925781 C 142.765625 47.378906 145.316406 45.367188 145.425781 45.457031 C 145.730469 45.707031 144.808594 48.246094 137.957031 66.03125 C 130.917969 84.296875 131.375 83.191406 124.207031 99.164062 C 116.660156 115.980469 111.738281 130.6875 109.539062 142.992188 C 108.363281 149.585938 108.679688 152.253906 110.652344 152.390625 C 112.140625 152.492188 112.390625 151.773438 113.425781 144.367188 C 114.710938 135.175781 119.964844 119.269531 126.972656 103.359375 C 132.871094 89.96875 146.34375 56.785156 147.636719 52.460938 C 150.972656 41.320312 150.671875 62.8125 147.199219 83.773438 C 145.8125 92.136719 144.886719 95.703125 138.167969 118.519531 C 132.742188 136.9375 129.847656 152.433594 131.378906 154.851562 C 133.0625 157.511719 134.746094 155.644531 135.105469 150.714844 C 135.5 145.292969 138.519531 131.722656 141.644531 121.335938 C 148.941406 97.0625 151.183594 87.472656 153.015625 72.707031 Z M 70.34375 96.945312 C 56.453125 107.738281 44.890625 117.125 41.683594 120.207031 L 38.914062 122.871094 L 37.8125 121.523438 C 36.363281 119.746094 36.390625 119.09375 37.984375 117.757812 C 49.125 108.414062 83.492188 82.515625 84.078125 83.019531 C 84.234375 83.15625 83.390625 84.648438 82.199219 86.339844 C 80.824219 88.292969 76.5 92.160156 70.34375 96.945312 Z M 19.699219 142.796875 C 14.253906 146.332031 10.605469 141.960938 14.460938 136.515625 C 16.046875 134.277344 30.816406 120.835938 31.660156 120.863281 C 31.847656 120.867188 33.167969 122.195312 34.597656 123.8125 C 36.023438 125.425781 37.203125 126.964844 37.210938 127.238281 C 37.234375 127.835938 22.296875 141.109375 19.699219 142.796875 Z M 334.9375 204.273438 C 333.859375 203.347656 317.796875 198.5625 295.585938 192.554688 C 280.847656 188.570312 279.214844 188.035156 278.371094 186.957031 C 277.496094 185.835938 277.507812 182.519531 278.402344 176.9375 C 280.503906 163.835938 281.289062 150.300781 281.03125 131.757812 C 281.003906 129.839844 281.425781 125.519531 281.976562 122.160156 C 282.738281 117.460938 282.808594 114.898438 282.289062 111.023438 C 281.511719 105.296875 281.597656 105.484375 271.035156 87.394531 C 266.828125 80.191406 261.628906 70.429688 259.480469 65.695312 C 253.785156 53.140625 252.488281 50.507812 251.191406 48.835938 C 247.640625 44.273438 244.765625 38.433594 244.539062 35.34375 C 244.257812 31.496094 241.675781 26.859375 238.714844 24.871094 C 237.039062 23.75 236.011719 21.894531 232.75 14.140625 C 228.136719 3.171875 226.898438 0.902344 222.789062 1.484375 C 218.910156 2.03125 217.539062 6.890625 217.238281 8.136719 C 216.515625 11.160156 216.125 22.0625 216.695312 23.484375 C 217.027344 24.3125 216.765625 24.730469 215.714844 25.050781 C 214.925781 25.292969 206.90625 27.886719 197.890625 30.816406 C 178.890625 36.992188 171.453125 38.777344 169.996094 37.523438 C 169.476562 37.074219 168.074219 34.796875 166.882812 32.46875 L 164.71875 28.230469 L 166.707031 25.675781 C 168.320312 23.601562 168.65625 22.613281 168.496094 20.402344 C 168.265625 17.277344 166.53125 15.375 163.785156 14.867188 C 159.804688 14.132812 154.164062 16.410156 152.730469 17.96875 C 151.933594 18.835938 151.324219 20.09375 151.371094 20.765625 C 151.421875 21.433594 150.8125 22.882812 150.019531 23.976562 C 149.226562 25.074219 148.617188 26.589844 148.664062 27.34375 C 148.726562 28.382812 146.882812 30.226562 141.117188 34.890625 L 133.488281 41.0625 L 132.917969 38.40625 C 131.871094 33.503906 127.445312 31.863281 122.304688 34.46875 C 117.464844 36.921875 107.679688 48.429688 95.773438 65.683594 L 91.121094 72.425781 L 78.550781 81.503906 C 65.664062 90.808594 38.460938 111.707031 35.460938 114.605469 C 34.539062 115.496094 33 116.28125 32.039062 116.351562 C 30.261719 116.480469 26.867188 119.027344 19.042969 126.101562 C 10.242188 134.058594 8.679688 136.445312 9.0625 141.347656 C 9.421875 145.972656 12.203125 148.292969 16.960938 147.945312 C 20.085938 147.714844 22.640625 146.054688 30.402344 139.203125 C 41.050781 129.808594 42.511719 128.253906 42.070312 126.792969 C 41.613281 125.273438 43.480469 123.550781 59.585938 110.664062 C 75 98.332031 74.085938 98.871094 70.933594 103.972656 C 61.265625 119.609375 58.726562 124.054688 56.351562 129.496094 C 52.714844 137.832031 51.160156 144.097656 51.546875 148.855469 C 52.046875 154.96875 54.015625 157.332031 62.066406 161.46875 C 63.253906 162.082031 64.953125 163.503906 65.835938 164.632812 C 69.921875 169.835938 73.445312 184.585938 74.195312 199.644531 L 74.652344 208.820312 L 76.230469 208.703125 C 77.617188 208.601562 77.835938 208.238281 78.027344 205.714844 C 78.707031 196.796875 75.878906 177.199219 72.773438 169.3125 L 71.300781 165.566406 L 73.386719 166.835938 C 74.535156 167.53125 77.714844 169.863281 80.453125 172.011719 C 86.578125 176.824219 89.167969 177.871094 96.8125 178.609375 C 101.121094 179.027344 104.296875 179.808594 108.089844 181.378906 C 112.878906 183.363281 113.726562 183.515625 117.210938 183.035156 C 120.40625 182.597656 121.859375 181.949219 125.878906 179.179688 C 132.621094 174.535156 134.992188 173.582031 138.796875 174.007812 C 140.496094 174.199219 142.015625 174.464844 142.167969 174.601562 C 142.324219 174.734375 139.21875 179.890625 135.265625 186.0625 C 129.625 194.863281 127.285156 199.253906 124.394531 206.441406 C 118.59375 220.863281 117.992188 224.113281 121.257812 223.390625 C 122.335938 223.152344 123.074219 221.808594 124.648438 217.222656 C 129.164062 204.054688 131.34375 199.714844 141.054688 184.578125 C 148.015625 173.726562 150.796875 167.546875 152.332031 159.535156 C 153.351562 154.199219 155.929688 134.101562 156.964844 123.390625 C 157.167969 121.277344 157.914062 113.933594 158.625 107.070312 C 160.417969 89.707031 160.648438 84.125 159.851562 77.515625 C 159.089844 71.160156 157.875 68.546875 155.117188 67.320312 C 153.824219 66.746094 153.449219 66.210938 153.65625 65.226562 C 153.804688 64.5 153.851562 60.484375 153.757812 56.296875 C 153.617188 50.148438 153.359375 48.246094 152.414062 46.394531 C 151.769531 45.132812 150.941406 44.121094 150.578125 44.144531 C 150.214844 44.171875 149.875 43.632812 149.824219 42.953125 C 149.765625 42.1875 150.960938 40.628906 152.917969 38.914062 C 154.671875 37.375 156.253906 36.109375 156.433594 36.09375 C 156.617188 36.082031 158.976562 37.308594 161.683594 38.820312 L 166.605469 41.570312 L 168.859375 48.613281 C 171.789062 57.765625 173.089844 62.808594 175.6875 75.113281 L 177.820312 85.214844 L 176.519531 87.277344 C 175.800781 88.414062 174.832031 89.367188 174.359375 89.402344 C 173.886719 89.4375 172.855469 90.214844 172.0625 91.128906 C 170.929688 92.445312 170.675781 93.445312 170.855469 95.878906 C 171.140625 99.8125 173.410156 106.554688 176.941406 113.984375 C 184.667969 130.234375 187.753906 137.980469 187.644531 140.851562 C 187.5625 142.949219 187.867188 144.097656 188.847656 145.332031 C 190.015625 146.808594 190.25 148.25 190.945312 158.054688 C 191.832031 170.550781 191.601562 174.332031 189.050781 189.300781 C 185.9375 207.578125 186.667969 218.199219 191.8125 229.464844 C 195.347656 237.210938 195.867188 242.320312 194.441406 255.292969 C 193.140625 267.074219 193.082031 268.523438 193.863281 269.785156 C 194.230469 270.371094 195.078125 270.808594 195.753906 270.757812 C 197.113281 270.660156 197.070312 270.851562 197.855469 261.394531 C 198.144531 257.878906 198.65625 252.410156 198.988281 249.242188 C 199.851562 241.066406 199.015625 236.105469 195.40625 227.910156 C 194.660156 226.21875 191.617188 220.25 191.066406 211.292969 C 190.609375 203.84375 191.0625 200.445312 192.636719 191.910156 C 195.050781 178.792969 195.578125 173.074219 195.292969 163.160156 L 195.035156 154.3125 L 197.378906 158.605469 C 198.667969 160.964844 201.847656 167.292969 204.4375 172.667969 C 222.9375 211.011719 230.746094 224.746094 236.976562 229.917969 C 242.554688 234.546875 261.933594 243.410156 281.25 250.167969 C 284.296875 251.234375 287 252.285156 287.253906 252.503906 C 287.511719 252.722656 288.585938 256.550781 289.648438 261.015625 C 291.765625 269.914062 296.269531 285.648438 299.882812 296.789062 C 301.160156 300.710938 302.445312 304.707031 302.742188 305.667969 C 303.476562 308.058594 306.011719 307.632812 306.117188 305.105469 C 306.15625 304.164062 304.132812 296.738281 301.617188 288.605469 C 297.292969 274.597656 294.289062 263.839844 292.828125 257.078125 L 292.171875 254.054688 L 295.039062 255.261719 C 298.054688 256.53125 318.15625 262.964844 324.1875 264.589844 C 328.113281 265.648438 329.996094 265.257812 329.859375 263.410156 C 329.753906 261.984375 329.867188 262.027344 313.511719 256.992188 C 306.898438 254.957031 299.128906 252.414062 296.242188 251.335938 L 290.996094 249.375 L 289.703125 242.855469 C 288.992188 239.269531 286.710938 228.3125 284.636719 218.511719 C 282.5625 208.707031 280.53125 198.804688 280.125 196.511719 L 279.386719 192.339844 L 294.542969 196.488281 C 302.875 198.769531 314.875 202.152344 321.207031 204 C 327.539062 205.847656 333.300781 207.320312 334.011719 207.265625 C 335.664062 207.144531 336.210938 205.375 334.9375 204.273438 " fill-opacity="1" fill-rule="nonzero"/></g></g></g></g></g><g fill="#ffffff" fill-opacity="1"><g transform="translate(186.810622, 356.29092)"><g><path d="M -0.234375 -3.222656 C -0.234375 -2.058594 -0.117188 5.085938 1.28125 5.085938 C 2.019531 5.085938 2.253906 4.929688 2.523438 4.117188 C 2.988281 2.679688 3.300781 1.046875 3.921875 -0.582031 C 4.386719 -1.746094 5.863281 -5.4375 6.601562 -5.980469 C 6.601562 -4.890625 6.640625 -3.144531 6.792969 -2.289062 C 7.066406 -0.699219 7.648438 0 8.464844 0 C 10.289062 0 12.074219 -3.261719 12.851562 -4.660156 C 13.238281 -5.4375 13.746094 -5.863281 13.511719 -6.792969 C 13.355469 -6.832031 13.199219 -6.871094 13.085938 -6.871094 C 12.773438 -6.871094 12.542969 -6.601562 12.074219 -5.785156 C 11.765625 -5.164062 11.453125 -4.621094 11.105469 -4.039062 C 10.445312 -3.105469 9.628906 -1.515625 8.464844 -1.242188 C 7.960938 -2.214844 7.960938 -3.105469 7.960938 -4.582031 C 7.960938 -5.28125 7.960938 -7.648438 7.105469 -7.648438 C 5.941406 -7.648438 5.589844 -6.832031 5.007812 -5.785156 C 3.339844 -2.757812 2.988281 -1.59375 1.941406 1.515625 L 1.628906 2.253906 L 1.515625 -2.097656 C 1.515625 -5.980469 1.902344 -10.5625 2.484375 -14.132812 C 2.679688 -15.453125 3.261719 -17.277344 2.988281 -18.480469 C 2.71875 -18.519531 2.523438 -18.558594 2.367188 -18.558594 C 1.980469 -18.558594 1.863281 -18.289062 1.515625 -17.277344 C 0.894531 -14.792969 0.273438 -12.269531 0.15625 -9.667969 C 0.117188 -9.085938 0.0390625 -8.191406 0 -7.609375 Z M -0.234375 -3.222656 "/></g></g></g><g fill="#ffffff" fill-opacity="1"><g transform="translate(198.652272, 356.29092)"><g><path d="M 0 -3.921875 C 0 -2.523438 0.117188 -1.863281 1.554688 -1.863281 C 2.679688 -1.863281 3.882812 -5.511719 4.621094 -6.019531 C 4.621094 -4.347656 5.863281 -2.328125 7.804688 -2.328125 C 8.464844 -2.328125 9.203125 -2.5625 9.976562 -3.105469 L 11.144531 -4.039062 C 13.125 -5.941406 12.890625 -6.910156 12.308594 -6.910156 C 12.074219 -6.910156 11.804688 -6.792969 11.609375 -6.523438 C 11.066406 -5.941406 10.949219 -5.589844 10.210938 -4.929688 C 9.355469 -4.078125 8.542969 -3.609375 7.804688 -3.609375 C 6.988281 -3.609375 6.289062 -4.230469 5.980469 -5.628906 C 5.628906 -7.105469 6.289062 -8.851562 4.929688 -8.851562 C 4.425781 -8.851562 2.835938 -5.550781 2.058594 -4.347656 L 1.746094 -3.882812 C 1.554688 -3.648438 1.667969 -3.804688 1.554688 -3.6875 C 1.554688 -4.96875 2.097656 -6.445312 2.601562 -7.261719 C 3.726562 -9.203125 4.503906 -9.746094 5.085938 -9.746094 C 5.824219 -9.746094 6.289062 -8.851562 6.832031 -8.851562 C 7.84375 -8.851562 6.832031 -11.066406 5.007812 -11.066406 C 2.289062 -11.066406 0 -6.132812 0 -3.921875 Z M 0 -3.921875 "/></g></g></g><g fill="#ffffff" fill-opacity="1"><g transform="translate(209.911547, 356.29092)"><g><path d="M 1.085938 -2.019531 C 2.601562 -2.019531 4.15625 -6.988281 5.4375 -7.84375 C 5.785156 -7.105469 5.242188 -5.550781 6.019531 -3.222656 C 6.367188 -2.175781 7.027344 -1.125 8.230469 -1.125 C 8.464844 -1.125 8.695312 -1.164062 8.96875 -1.242188 C 9.863281 -1.476562 11.105469 -3.027344 11.648438 -3.726562 C 11.882812 -4.039062 14.171875 -6.910156 12.65625 -6.910156 C 11.957031 -6.910156 9.902344 -2.289062 8.347656 -2.289062 C 6.910156 -2.289062 6.832031 -5.746094 6.832031 -6.71875 L 6.601562 -8.890625 C 6.40625 -9.320312 6.132812 -9.511719 5.863281 -9.511719 C 4.929688 -9.511719 3.765625 -7.53125 3.535156 -7.105469 L 1.667969 -4.269531 C 1.667969 -7.300781 4.191406 -10.949219 2.484375 -10.949219 C 1.007812 -10.949219 -1.398438 -2.019531 1.085938 -2.019531 Z M 1.085938 -2.019531 "/></g></g></g><g fill="#ffffff" fill-opacity="1"><g transform="translate(221.559066, 356.29092)"><g><path d="M 1.359375 -2.835938 C 1.359375 -5.242188 2.175781 -7.84375 3.535156 -9.511719 C 3.921875 -10.054688 4.347656 -10.5625 5.242188 -10.675781 C 5.203125 -10.09375 2.367188 -2.484375 1.515625 -2.484375 C 1.398438 -2.484375 1.359375 -2.5625 1.359375 -2.835938 Z M 5.785156 -11.726562 C 5.203125 -11.726562 5.4375 -11.84375 5.007812 -11.84375 C 1.476562 -11.84375 -1.902344 -1.125 1.359375 -1.125 C 2.835938 -1.125 3.570312 -3.066406 4.117188 -4.269531 L 5.472656 -7.570312 C 5.589844 -7.921875 5.550781 -7.84375 5.785156 -8.074219 C 5.785156 -6.523438 5.046875 6.523438 6.792969 6.523438 C 8.191406 6.523438 7.222656 5.667969 7.183594 3.144531 C 7.105469 -3.378906 6.601562 -10.210938 8.503906 -16.539062 C 8.734375 -17.472656 10.171875 -21.355469 8.734375 -21.355469 C 8.695312 -21.355469 8.621094 -21.316406 8.542969 -21.316406 C 7.609375 -21.121094 7.183594 -18.363281 6.988281 -17.550781 L 6.171875 -13.164062 C 6.019531 -12.65625 5.785156 -12.269531 5.785156 -11.726562 Z M 5.785156 -11.726562 "/></g></g></g><g fill="#ffffff" fill-opacity="1"><g transform="translate(230.255882, 356.29092)"><g><path d="M 2.058594 -3.144531 L 2.136719 -3.144531 C 3.84375 -3.261719 5.320312 -8.773438 7.066406 -9.941406 C 7.066406 -8.773438 7.414062 -7.378906 8.621094 -7.378906 C 9.667969 -7.378906 11.066406 -9.394531 11.84375 -9.941406 C 11.84375 -7.6875 10.753906 -4 11.882812 -1.164062 C 12.308594 -0.0390625 13.007812 0.386719 13.746094 0.386719 C 15.027344 0.386719 16.5 -0.855469 17.511719 -2.328125 C 17.78125 -2.71875 17.9375 -2.910156 18.171875 -3.222656 C 18.402344 -3.609375 18.519531 -3.84375 18.753906 -4.191406 C 19.023438 -4.621094 19.878906 -5.863281 19.878906 -6.328125 C 19.878906 -6.601562 19.644531 -6.832031 19.492188 -6.832031 C 18.636719 -6.832031 18.441406 -6.097656 18.09375 -5.550781 C 17.082031 -3.882812 15.257812 -1.046875 14.132812 -1.046875 C 13.472656 -1.046875 13.046875 -1.902344 13.046875 -4.269531 C 13.046875 -6.445312 13.746094 -10.601562 13.046875 -11.414062 C 12.851562 -11.648438 12.617188 -11.726562 12.386719 -11.726562 C 12.152344 -11.726562 11.917969 -11.648438 11.6875 -11.53125 C 11.261719 -11.296875 11.027344 -10.988281 10.675781 -10.601562 C 9.976562 -9.976562 9.085938 -8.851562 8.503906 -8.773438 C 8.503906 -10.015625 8.230469 -11.53125 7.066406 -11.53125 C 6.132812 -11.53125 5.007812 -9.550781 4.582031 -8.8125 L 2.757812 -5.746094 C 2.679688 -5.667969 2.640625 -5.628906 2.5625 -5.550781 C 2.5625 -9.472656 4.425781 -11.222656 2.445312 -11.222656 C 1.046875 -11.222656 -0.660156 -3.144531 2.058594 -3.144531 Z M 2.058594 -3.144531 "/></g></g></g><g fill="#ffffff" fill-opacity="1"><g transform="translate(248.387198, 356.29092)"><g><path d="M 0 -3.921875 C 0 -2.523438 0.117188 -1.863281 1.554688 -1.863281 C 2.679688 -1.863281 3.882812 -5.511719 4.621094 -6.019531 C 4.621094 -4.347656 5.863281 -2.328125 7.804688 -2.328125 C 8.464844 -2.328125 9.203125 -2.5625 9.976562 -3.105469 L 11.144531 -4.039062 C 13.125 -5.941406 12.890625 -6.910156 12.308594 -6.910156 C 12.074219 -6.910156 11.804688 -6.792969 11.609375 -6.523438 C 11.066406 -5.941406 10.949219 -5.589844 10.210938 -4.929688 C 9.355469 -4.078125 8.542969 -3.609375 7.804688 -3.609375 C 6.988281 -3.609375 6.289062 -4.230469 5.980469 -5.628906 C 5.628906 -7.105469 6.289062 -8.851562 4.929688 -8.851562 C 4.425781 -8.851562 2.835938 -5.550781 2.058594 -4.347656 L 1.746094 -3.882812 C 1.554688 -3.648438 1.667969 -3.804688 1.554688 -3.6875 C 1.554688 -4.96875 2.097656 -6.445312 2.601562 -7.261719 C 3.726562 -9.203125 4.503906 -9.746094 5.085938 -9.746094 C 5.824219 -9.746094 6.289062 -8.851562 6.832031 -8.851562 C 7.84375 -8.851562 6.832031 -11.066406 5.007812 -11.066406 C 2.289062 -11.066406 0 -6.132812 0 -3.921875 Z M 0 -3.921875 "/></g></g></g><g fill="#ffffff" fill-opacity="1"><g transform="translate(259.646474, 356.29092)"><g><path d="M 1.359375 -2.835938 C 1.359375 -5.242188 2.175781 -7.84375 3.535156 -9.511719 C 3.921875 -10.054688 4.347656 -10.5625 5.242188 -10.675781 C 5.203125 -10.09375 2.367188 -2.484375 1.515625 -2.484375 C 1.398438 -2.484375 1.359375 -2.5625 1.359375 -2.835938 Z M 5.785156 -11.726562 C 5.203125 -11.726562 5.4375 -11.84375 5.007812 -11.84375 C 1.476562 -11.84375 -1.902344 -1.125 1.359375 -1.125 C 2.835938 -1.125 3.570312 -3.066406 4.117188 -4.269531 L 5.472656 -7.570312 C 5.589844 -7.921875 5.550781 -7.84375 5.785156 -8.074219 C 5.785156 -6.523438 5.046875 6.523438 6.792969 6.523438 C 8.191406 6.523438 7.222656 5.667969 7.183594 3.144531 C 7.105469 -3.378906 6.601562 -10.210938 8.503906 -16.539062 C 8.734375 -17.472656 10.171875 -21.355469 8.734375 -21.355469 C 8.695312 -21.355469 8.621094 -21.316406 8.542969 -21.316406 C 7.609375 -21.121094 7.183594 -18.363281 6.988281 -17.550781 L 6.171875 -13.164062 C 6.019531 -12.65625 5.785156 -12.269531 5.785156 -11.726562 Z M 5.785156 -11.726562 "/></g></g></g><g fill="#ffffff" fill-opacity="1"><g transform="translate(268.34329, 356.29092)"><g><path d="M 1.785156 -7.027344 C 2.058594 -8 3.339844 -9.511719 4.386719 -9.707031 C 4.269531 -8.464844 2.757812 -7.53125 1.785156 -7.027344 Z M 0.0390625 -6.097656 C 0.0390625 -5.007812 0 -4.039062 0.933594 -3.105469 C 1.59375 -2.445312 2.367188 -2.175781 3.183594 -2.175781 C 5.550781 -2.175781 8.230469 -4.542969 9.667969 -5.980469 C 10.015625 -6.40625 10.015625 -6.445312 9.902344 -7.027344 C 8.734375 -7.027344 9.355469 -6.871094 7.765625 -5.628906 C 7.492188 -5.4375 7.378906 -5.28125 7.066406 -5.046875 C 6.289062 -4.464844 4.660156 -3.339844 3.300781 -3.339844 C 2.835938 -3.339844 2.367188 -3.496094 2.019531 -3.84375 C 1.359375 -4.503906 1.4375 -5.125 1.4375 -5.941406 C 2.640625 -6.019531 4.039062 -7.144531 4.660156 -7.84375 C 5.863281 -9.355469 5.863281 -10.910156 4.15625 -10.910156 C 2.289062 -10.910156 0.0390625 -8.039062 0.0390625 -6.097656 Z M 0.0390625 -6.097656 "/></g></g></g><g fill="#ffffff" fill-opacity="1"><g transform="translate(276.768337, 356.29092)"><g/></g></g><g fill="#ffffff" fill-opacity="1"><g transform="translate(286.824029, 356.29092)"><g><path d="M 0 -2.949219 L 0 0.347656 C 0 1.085938 0.078125 1.203125 0.117188 1.785156 C 0.195312 2.757812 -0.15625 4.078125 0.894531 4.078125 C 1.667969 4.078125 1.902344 1.863281 2.484375 0.15625 L 4.191406 -3.570312 C 4.621094 -1.785156 4.890625 0 5.472656 1.707031 C 5.785156 2.640625 6.210938 4.425781 7.183594 4.890625 C 7.300781 4.929688 7.414062 4.96875 7.492188 4.96875 C 7.804688 4.96875 8 4.699219 8.191406 4.464844 C 8.074219 3.960938 7.726562 3.609375 7.339844 2.640625 C 6.757812 1.085938 5.941406 -2.367188 5.785156 -4 C 5.550781 -6.210938 5.511719 -6.171875 6.210938 -7.339844 C 6.40625 -7.648438 6.601562 -7.921875 6.792969 -8.230469 C 7.921875 -10.132812 9.472656 -11.414062 7.804688 -11.414062 C 6.523438 -11.414062 1.746094 -1.398438 1.515625 -1.164062 C 1.515625 -6.679688 2.214844 -14.328125 3.261719 -20.074219 C 3.570312 -21.820312 4.308594 -23.179688 2.796875 -23.179688 C 1.4375 -23.179688 0.621094 -14.832031 0.503906 -13.9375 C 0.195312 -10.484375 0 -6.679688 0 -2.949219 Z M 0 -2.949219 "/></g></g></g><g fill="#ffffff" fill-opacity="1"><g transform="translate(295.63732, 356.29092)"><g><path d="M 1.085938 -2.019531 C 2.601562 -2.019531 4.15625 -6.988281 5.4375 -7.84375 C 5.785156 -7.105469 5.242188 -5.550781 6.019531 -3.222656 C 6.367188 -2.175781 7.027344 -1.125 8.230469 -1.125 C 8.464844 -1.125 8.695312 -1.164062 8.96875 -1.242188 C 9.863281 -1.476562 11.105469 -3.027344 11.648438 -3.726562 C 11.882812 -4.039062 14.171875 -6.910156 12.65625 -6.910156 C 11.957031 -6.910156 9.902344 -2.289062 8.347656 -2.289062 C 6.910156 -2.289062 6.832031 -5.746094 6.832031 -6.71875 L 6.601562 -8.890625 C 6.40625 -9.320312 6.132812 -9.511719 5.863281 -9.511719 C 4.929688 -9.511719 3.765625 -7.53125 3.535156 -7.105469 L 1.667969 -4.269531 C 1.667969 -7.300781 4.191406 -10.949219 2.484375 -10.949219 C 1.007812 -10.949219 -1.398438 -2.019531 1.085938 -2.019531 Z M 1.085938 -2.019531 "/></g></g></g><g fill="#ffffff" fill-opacity="1"><g transform="translate(307.284839, 356.29092)"><g><path d="M 3.222656 0.15625 C 5.046875 0.15625 6.523438 -1.554688 7.453125 -2.523438 C 8.074219 -3.144531 10.40625 -5.746094 10.40625 -6.484375 C 10.40625 -6.832031 10.289062 -6.949219 10.132812 -6.949219 C 9.394531 -6.949219 7.339844 -4.191406 7.183594 -4 C 6.601562 -3.261719 4.582031 -1.203125 3.339844 -1.203125 C 2.289062 -1.203125 1.863281 -3.496094 1.863281 -4.660156 C 1.863281 -8.621094 3.417969 -10.367188 1.628906 -10.367188 C 0.855469 -10.367188 0.464844 -8.621094 0.347656 -7.804688 C -0.078125 -5.824219 0 -3.144531 0.933594 -1.398438 C 1.359375 -0.660156 2.175781 0.15625 3.222656 0.15625 Z M 1.980469 -15.257812 C 1.980469 -14.40625 2.484375 -14.015625 3.027344 -14.015625 C 3.804688 -14.015625 4.621094 -14.871094 3.882812 -16.308594 C 3.648438 -16.734375 3.378906 -16.890625 3.105469 -16.890625 C 2.523438 -16.890625 1.980469 -16.152344 1.980469 -15.257812 Z M 1.980469 -15.257812 "/></g></g></g><g fill="#ffffff" fill-opacity="1"><g transform="translate(316.13695, 356.29092)"><g><path d="M -10.910156 -17.316406 C -10.910156 -16.773438 -10.523438 -16.65625 -10.09375 -16.65625 C -9.863281 -16.65625 -9.628906 -16.695312 -9.433594 -16.734375 C -9.085938 -17.472656 -9.472656 -17.316406 -8.503906 -17.703125 C -8.039062 -17.898438 -7.6875 -18.171875 -7.222656 -18.363281 C -4.816406 -19.296875 -2.601562 -19.957031 -0.0390625 -20.578125 C 0.347656 -20.695312 1.242188 -20.851562 1.476562 -20.925781 L 1.125 -17.316406 C 1.085938 -16.8125 1.046875 -15.957031 0.96875 -15.453125 C 0.777344 -14.328125 0.738281 -9.085938 0.738281 -7.609375 L 0.621094 -5.785156 C 0.621094 -2.949219 0.503906 1.667969 0.738281 4.464844 C 0.738281 5.398438 0.777344 6.792969 1.785156 6.792969 C 2.796875 6.792969 2.214844 4.117188 2.214844 3.222656 C 2.136719 1.515625 2.175781 -6.25 2.289062 -7.414062 C 2.367188 -8.230469 2.289062 -9.976562 2.289062 -11.105469 C 2.289062 -11.648438 2.40625 -11.648438 2.40625 -12.152344 C 2.40625 -12.542969 2.367188 -13.007812 2.40625 -13.355469 L 3.183594 -21.316406 C 4.117188 -21.511719 10.015625 -22.636719 12.152344 -22.636719 C 12.425781 -22.636719 12.617188 -22.636719 12.773438 -22.597656 C 13.238281 -22.480469 13.125 -22.636719 13.238281 -22.246094 C 14.714844 -22.246094 14.25 -23.800781 12.425781 -23.800781 C 10.054688 -23.800781 7.765625 -23.414062 5.511719 -22.984375 C 4.929688 -22.90625 4.117188 -22.675781 3.496094 -22.675781 C 3.496094 -23.917969 4.269531 -22.90625 4.269531 -23.917969 C 4.269531 -24.148438 4.230469 -24.304688 4.230469 -24.421875 C 4.191406 -24.808594 4.269531 -24.5 4.269531 -24.964844 C 4.269531 -25.585938 3.960938 -26.089844 3.535156 -26.089844 C 3.027344 -26.089844 2.40625 -25.394531 2.019531 -23.296875 C 1.746094 -21.976562 1.863281 -22.324219 0.234375 -21.898438 C -1.980469 -21.277344 -10.910156 -19.0625 -10.910156 -17.316406 Z M -10.910156 -17.316406 "/></g></g></g><g fill="#ffffff" fill-opacity="1"><g transform="translate(320.64066, 356.29092)"><g><path d="M 0.464844 6.40625 C 0.464844 4.851562 1.59375 3.105469 2.523438 1.980469 C 2.988281 1.4375 3.921875 0.273438 4.542969 -0.078125 C 4.542969 1.007812 4.582031 1.863281 4.308594 2.757812 C 3.960938 4.039062 3.105469 5.902344 2.058594 6.679688 C 1.785156 6.910156 1.320312 7.222656 0.96875 7.222656 C 0.699219 7.222656 0.464844 6.988281 0.464844 6.40625 Z M 0.117188 -6.289062 C 0.117188 -4.230469 2.835938 -3.570312 4.039062 -1.359375 C 3.457031 -0.425781 -0.777344 2.910156 -0.777344 6.40625 C -0.777344 7.804688 0 8.542969 1.085938 8.542969 C 2.253906 8.542969 3.726562 7.648438 4.851562 5.746094 C 7.453125 1.320312 5.863281 -0.933594 6.019531 -1.476562 C 6.097656 -1.785156 8.851562 -3.84375 9.28125 -4.078125 L 11.917969 -5.902344 C 12.8125 -6.40625 12.890625 -7.066406 12.269531 -7.066406 C 11.917969 -7.066406 11.414062 -6.910156 10.753906 -6.445312 L 7.144531 -3.921875 C 6.5625 -3.417969 6.019531 -2.988281 5.398438 -2.5625 C 3.378906 -5.589844 0.464844 -5.472656 2.523438 -7.804688 C 3.105469 -8.464844 2.988281 -8.269531 3.921875 -8.503906 C 4.15625 -9.472656 3.804688 -9.863281 3.261719 -9.863281 C 2.136719 -9.863281 0.117188 -8.269531 0.117188 -6.289062 Z M 0.117188 -6.289062 "/></g></g></g><g fill="#ffffff" fill-opacity="1"><g transform="translate(16.967653, 328.462766)"><g><path d="M 4 0 L 4 -31.84375 L 7.140625 -31.84375 L 7.140625 -13.34375 L 24.703125 -31.890625 L 28.171875 -31.890625 L 15.140625 -17.875 L 28.84375 0 L 25.375 0 L 13.15625 -16.03125 L 7.140625 -9.796875 L 7.140625 0 Z M 4 0 "/></g></g></g><g fill="#ffffff" fill-opacity="1"><g transform="translate(45.845385, 328.462766)"><g><path d="M 7.140625 -26.0625 L 7.140625 0 L 4 0 L 4 -31.890625 L 6.421875 -31.890625 L 27.53125 -5.34375 L 27.53125 -31.84375 L 30.6875 -31.84375 L 30.6875 0 L 27.9375 0 Z M 7.140625 -26.0625 "/></g></g></g><g fill="#ffffff" fill-opacity="1"><g transform="translate(80.516619, 328.462766)"><g><path d="M 4 0 L 4 -31.890625 L 7.140625 -31.890625 L 7.140625 0 Z M 4 0 "/></g></g></g><g fill="#ffffff" fill-opacity="1"><g transform="translate(91.654533, 328.462766)"><g><path d="M 26.640625 -29.109375 L 15.28125 -29.109375 L 15.28125 0 L 12.125 0 L 12.125 -29.109375 L 0.765625 -29.109375 L 0.765625 -31.890625 L 26.640625 -31.890625 Z M 26.640625 -29.109375 "/></g></g></g><g fill="#ffffff" fill-opacity="1"><g transform="translate(119.050198, 328.462766)"><g><path d="M 2.921875 -10.828125 L 2.921875 -13.65625 L 16.03125 -13.65625 L 16.03125 -10.828125 Z M 2.921875 -10.828125 "/></g></g></g><g fill="#ffffff" fill-opacity="1"><g transform="translate(138.002606, 328.462766)"><g><path d="M 16 -31.671875 L 18.953125 -31.671875 L 23.453125 -20.34375 L 27.984375 -31.671875 L 31 -31.671875 L 25.421875 -18.0625 L 31.53125 -3.640625 L 43.078125 -31.890625 L 46.5 -31.890625 L 32.96875 0 L 30.1875 0 L 23.5 -15.765625 L 16.75 0 L 14.015625 0 L 0.546875 -31.890625 L 3.90625 -31.890625 L 15.5 -3.640625 L 21.5625 -18.0625 Z M 16 -31.671875 "/></g></g></g><g fill="#ffffff" fill-opacity="1"><g transform="translate(184.979441, 328.462766)"><g><path d="M 16.84375 0.21875 C 14.625 0.21875 12.59375 -0.234375 10.75 -1.140625 C 8.914062 -2.054688 7.335938 -3.269531 6.015625 -4.78125 C 4.703125 -6.289062 3.6875 -8.019531 2.96875 -9.96875 C 2.25 -11.914062 1.890625 -13.910156 1.890625 -15.953125 C 1.890625 -18.078125 2.269531 -20.113281 3.03125 -22.0625 C 3.789062 -24.007812 4.84375 -25.726562 6.1875 -27.21875 C 7.539062 -28.71875 9.128906 -29.910156 10.953125 -30.796875 C 12.785156 -31.679688 14.765625 -32.125 16.890625 -32.125 C 19.109375 -32.125 21.132812 -31.648438 22.96875 -30.703125 C 24.8125 -29.765625 26.382812 -28.53125 27.6875 -27 C 29 -25.46875 30.015625 -23.734375 30.734375 -21.796875 C 31.453125 -19.867188 31.8125 -17.90625 31.8125 -15.90625 C 31.8125 -13.78125 31.425781 -11.742188 30.65625 -9.796875 C 29.894531 -7.847656 28.847656 -6.128906 27.515625 -4.640625 C 26.179688 -3.160156 24.597656 -1.976562 22.765625 -1.09375 C 20.941406 -0.21875 18.96875 0.21875 16.84375 0.21875 Z M 5.03125 -15.953125 C 5.03125 -14.210938 5.3125 -12.539062 5.875 -10.9375 C 6.445312 -9.332031 7.257812 -7.910156 8.3125 -6.671875 C 9.363281 -5.429688 10.609375 -4.441406 12.046875 -3.703125 C 13.484375 -2.972656 15.082031 -2.609375 16.84375 -2.609375 C 18.644531 -2.609375 20.273438 -2.992188 21.734375 -3.765625 C 23.203125 -4.546875 24.445312 -5.566406 25.46875 -6.828125 C 26.488281 -8.085938 27.273438 -9.507812 27.828125 -11.09375 C 28.378906 -12.6875 28.65625 -14.304688 28.65625 -15.953125 C 28.65625 -17.679688 28.363281 -19.347656 27.78125 -20.953125 C 27.195312 -22.554688 26.378906 -23.972656 25.328125 -25.203125 C 24.285156 -26.429688 23.046875 -27.410156 21.609375 -28.140625 C 20.171875 -28.878906 18.582031 -29.25 16.84375 -29.25 C 15.050781 -29.25 13.421875 -28.863281 11.953125 -28.09375 C 10.484375 -27.332031 9.238281 -26.320312 8.21875 -25.0625 C 7.195312 -23.8125 6.410156 -22.390625 5.859375 -20.796875 C 5.304688 -19.210938 5.03125 -17.597656 5.03125 -15.953125 Z M 5.03125 -15.953125 "/></g></g></g><g fill="#ffffff" fill-opacity="1"><g transform="translate(218.707548, 328.462766)"><g><path d="M 4 0 L 4 -31.890625 L 17.46875 -31.890625 C 18.851562 -31.890625 20.117188 -31.597656 21.265625 -31.015625 C 22.421875 -30.429688 23.414062 -29.664062 24.25 -28.71875 C 25.09375 -27.78125 25.742188 -26.710938 26.203125 -25.515625 C 26.671875 -24.316406 26.90625 -23.101562 26.90625 -21.875 C 26.90625 -20.707031 26.734375 -19.59375 26.390625 -18.53125 C 26.046875 -17.46875 25.566406 -16.507812 24.953125 -15.65625 C 24.335938 -14.800781 23.59375 -14.082031 22.71875 -13.5 C 21.851562 -12.914062 20.882812 -12.519531 19.8125 -12.3125 L 27.625 0 L 24.078125 0 L 16.578125 -11.765625 L 7.140625 -11.765625 L 7.140625 0 Z M 7.140625 -14.5625 L 17.5625 -14.5625 C 18.488281 -14.5625 19.332031 -14.757812 20.09375 -15.15625 C 20.863281 -15.5625 21.515625 -16.109375 22.046875 -16.796875 C 22.585938 -17.484375 23.007812 -18.257812 23.3125 -19.125 C 23.613281 -20 23.765625 -20.914062 23.765625 -21.875 C 23.765625 -22.832031 23.59375 -23.753906 23.25 -24.640625 C 22.90625 -25.523438 22.441406 -26.296875 21.859375 -26.953125 C 21.273438 -27.609375 20.582031 -28.128906 19.78125 -28.515625 C 18.988281 -28.910156 18.160156 -29.109375 17.296875 -29.109375 L 7.140625 -29.109375 Z M 7.140625 -14.5625 "/></g></g></g><g fill="#ffffff" fill-opacity="1"><g transform="translate(248.034385, 328.462766)"><g><path d="M 4 0 L 4 -31.84375 L 7.140625 -31.84375 L 7.140625 -13.34375 L 24.703125 -31.890625 L 28.171875 -31.890625 L 15.140625 -17.875 L 28.84375 0 L 25.375 0 L 13.15625 -16.03125 L 7.140625 -9.796875 L 7.140625 0 Z M 4 0 "/></g></g></g><g fill="#ffffff" fill-opacity="1"><g transform="translate(276.912117, 328.462766)"><g><path d="M 4 0 L 4 -31.890625 L 7.140625 -31.890625 L 7.140625 0 Z M 4 0 "/></g></g></g><g fill="#ffffff" fill-opacity="1"><g transform="translate(288.050031, 328.462766)"><g><path d="M 7.140625 -26.0625 L 7.140625 0 L 4 0 L 4 -31.890625 L 6.421875 -31.890625 L 27.53125 -5.34375 L 27.53125 -31.84375 L 30.6875 -31.84375 L 30.6875 0 L 27.9375 0 Z M 7.140625 -26.0625 "/></g></g></g><g fill="#ffffff" fill-opacity="1"><g transform="translate(322.721265, 328.462766)"><g><path d="M 27.046875 -4.671875 C 24.078125 -1.410156 20.660156 0.21875 16.796875 0.21875 C 14.640625 0.21875 12.65625 -0.242188 10.84375 -1.171875 C 9.03125 -2.097656 7.457031 -3.320312 6.125 -4.84375 C 4.800781 -6.375 3.765625 -8.101562 3.015625 -10.03125 C 2.265625 -11.96875 1.890625 -13.957031 1.890625 -16 C 1.890625 -18.125 2.253906 -20.15625 2.984375 -22.09375 C 3.722656 -24.039062 4.75 -25.753906 6.0625 -27.234375 C 7.382812 -28.722656 8.941406 -29.910156 10.734375 -30.796875 C 12.535156 -31.679688 14.5 -32.125 16.625 -32.125 C 18.175781 -32.125 19.597656 -31.953125 20.890625 -31.609375 C 22.179688 -31.265625 23.328125 -30.785156 24.328125 -30.171875 C 25.328125 -29.554688 26.191406 -28.820312 26.921875 -27.96875 C 27.660156 -27.113281 28.285156 -26.175781 28.796875 -25.15625 L 26.375 -23.546875 C 25.320312 -25.515625 23.957031 -26.960938 22.28125 -27.890625 C 20.601562 -28.828125 18.703125 -29.296875 16.578125 -29.296875 C 14.804688 -29.296875 13.207031 -28.921875 11.78125 -28.171875 C 10.363281 -27.421875 9.15625 -26.421875 8.15625 -25.171875 C 7.15625 -23.929688 6.382812 -22.507812 5.84375 -20.90625 C 5.300781 -19.3125 5.03125 -17.660156 5.03125 -15.953125 C 5.03125 -14.148438 5.335938 -12.441406 5.953125 -10.828125 C 6.566406 -9.210938 7.410156 -7.796875 8.484375 -6.578125 C 9.566406 -5.367188 10.832031 -4.40625 12.28125 -3.6875 C 13.738281 -2.96875 15.320312 -2.609375 17.03125 -2.609375 C 18.851562 -2.609375 20.59375 -3.035156 22.25 -3.890625 C 23.914062 -4.742188 25.515625 -6.097656 27.046875 -7.953125 L 27.046875 -13.25 L 19.953125 -13.25 L 19.953125 -15.671875 L 29.6875 -15.671875 L 29.6875 0 L 27.046875 0 Z M 27.046875 -4.671875 "/></g></g></g></svg>